<?xml version="1.0" encoding="utf-8"?>
<!-- Generator: Adobe Illustrator 24.2.3, SVG Export Plug-In . SVG Version: 6.00 Build 0)  -->
<svg version="1.1" id="レイヤー_1" xmlns="http://www.w3.org/2000/svg" xmlns:xlink="http://www.w3.org/1999/xlink" x="0px"
	 y="0px" viewBox="0 0 123.793 128" style="enable-background:new 0 0 123.793 128;" xml:space="preserve">
<style type="text/css">
/*	.st0{fill:#30C5DC;}
	.st1{fill:#00A8CD;}
	.st2{fill:#007FB8;} */
</style>
<g>
	<path fill="#30C5DC" class="st0" d="M119.326,25.685L76.681,1.064c-2.457-1.418-6.477-1.418-8.934,0L47.115,12.976
		c2.457-1.417,6.475-1.416,8.931,0.002l42.645,24.621c2.457,1.418,4.467,4.9,4.467,7.737l0,49.243c0,2.835-2.008,6.314-4.463,7.734
		l20.63-11.911c2.457-1.418,4.467-4.9,4.467-7.737V33.422C123.793,30.585,121.783,27.104,119.326,25.685z"/>
	<path fill="#00A8CD" class="st1" d="M69.447,59.641c5.697,9.868,2.316,22.486-7.552,28.183l41.263-23.823V45.335c0-2.837-2.01-6.318-4.467-7.737
		l-16.165-9.333L41.263,52.089C51.131,46.392,63.749,49.773,69.447,59.641z"/>
	<path fill="#007FB8" class="st2" d="M61.895,87.824c-9.868,5.697-22.486,2.316-28.183-7.552c-5.697-9.868-2.316-22.486,7.552-28.183l41.263-23.823
		L56.046,12.977c-2.456-1.418-6.474-1.418-8.931-0.002c-0.001,0.001-0.002,0.001-0.003,0.002L4.467,37.599
		C2.01,39.017,0,42.499,0,45.335l0,49.243c0,2.837,2.01,6.318,4.467,7.737l42.645,24.621c2.457,1.419,6.477,1.419,8.934,0
		l42.645-24.621c0.001-0.001,0.003-0.002,0.004-0.003c2.455-1.42,4.463-4.899,4.463-7.734l0-30.577L61.895,87.824z"/>
</g>
</svg>

